<svg xmlns="http://www.w3.org/2000/svg" viewBox="0 0 760 460" role="img" aria-label="iPhoneRepasse">
  <g transform="translate(252 28)">
    <g fill="none" stroke-linecap="round" stroke-linejoin="round">
      <rect x="78" y="28" width="100" height="200" rx="26" stroke="#f5f5f7" stroke-width="14"/>
      <rect x="112" y="46" width="32" height="10" rx="5" stroke="#f5f5f7" stroke-width="10"/>
      <path d="M 60 108 C 38 128 38 160 60 180" stroke="#2563eb" stroke-width="14"/>
      <path d="M 74 120 C 60 132 60 156 74 168" stroke="#3b82f6" stroke-width="14"/>
      <path d="M 90 132 C 82 140 82 148 90 156" stroke="#60a5fa" stroke-width="14"/>
      <path d="M 196 76 C 218 96 218 128 196 148" stroke="#ea580c" stroke-width="14"/>
      <path d="M 182 88 C 196 100 196 124 182 136" stroke="#f97316" stroke-width="14"/>
      <path d="M 166 100 C 174 108 174 116 166 124" stroke="#fb923c" stroke-width="14"/>
    </g>
  </g>
  <text x="380" y="352" text-anchor="middle" fill="#f5f5f7" font-family="Avenir Next, Montserrat, Inter, system-ui, -apple-system, sans-serif" font-size="96" letter-spacing="2">iPHONE</text>
  <text x="380" y="428" text-anchor="middle" fill="#f5f5f7" font-family="Avenir Next, Montserrat, Inter, system-ui, -apple-system, sans-serif" font-size="62" letter-spacing="14">REPASSE</text>
</svg>
